<?xml version="1.0" encoding="UTF-8" standalone="no"?>
<svg width="35px" height="34px" viewBox="0 0 35 34" version="1.1" xmlns="http://www.w3.org/2000/svg" xmlns:xlink="http://www.w3.org/1999/xlink">
    <!-- Generator: sketchtool 39.1 (31720) - http://www.bohemiancoding.com/sketch -->
    <title>66661090-C758-4EC4-935A-C98AE1D3F92B</title>
    <desc>Created with sketchtool.</desc>
    <defs>
        <rect id="path-1" x="0.13613993" y="0" width="34.8638601" height="34" rx="1"></rect>
        <mask id="mask-2" maskContentUnits="userSpaceOnUse" maskUnits="objectBoundingBox" x="0" y="0" width="34.8638601" height="34" fill="white">
            <use xlink:href="#path-1"></use>
        </mask>
    </defs>
    <g id="Desktop" stroke="none" stroke-width="1" fill="none" fill-rule="evenodd">
        <g id="1.Home" transform="translate(-1430.000000, -550.000000)">
            <g id="RHS" transform="translate(960.000000, 58.000000)">
                <g id="Banner" transform="translate(10.000000, 52.000000)">
                    <g id="Detail-Bar" transform="translate(0.000000, 409.000000)">
                        <g id="Area" transform="translate(460.000000, 31.000000)">
                            <use id="Rectangle-11" stroke="#2FB56E" mask="url(#mask-2)" stroke-width="4" xlink:href="#path-1"></use>
                            <path d="M7.88366439,25.6653677 L7.88366439,20.6438893 C7.88366439,20.3661229 7.66180374,20.1481481 7.38812475,20.1481481 L7.08794995,20.1481481 C6.81732961,20.1481481 6.59241031,20.370099 6.59241031,20.6438893 L6.59241031,27.2079626 C6.59241031,27.4747027 6.79700662,27.686304 7.05561369,27.7026832 C7.09660278,27.7137728 7.13968615,27.7197011 7.18413587,27.7197011 L13.7482092,27.7197011 C14.0259756,27.7197011 14.2439503,27.4978405 14.2439503,27.2241615 L14.2439503,26.9239867 C14.2439503,26.6533663 14.0219995,26.428447 13.7482092,26.428447 L8.94669406,26.428447 L27.2524755,8.12266555 L27.2524755,13.3561107 C27.2524755,13.6338771 27.4743362,13.8518519 27.7480152,13.8518519 L28.04819,13.8518519 C28.3188103,13.8518519 28.5437296,13.629901 28.5437296,13.3561107 L28.5437296,6.7920374 C28.5437296,6.52529727 28.3391333,6.31369595 28.0805262,6.29731684 C28.0395371,6.28622717 27.9964538,6.28029889 27.9520041,6.28029889 L21.3879307,6.28029889 C21.1101644,6.28029889 20.8921896,6.50215954 20.8921896,6.77583852 L20.8921896,7.07601333 C20.8921896,7.34663367 21.1141405,7.57155296 21.3879307,7.57155296 L25.9774791,7.57155296 L7.88366439,25.6653677 Z" id="Combined-Shape" fill="#2FB56E"></path>
                        </g>
                    </g>
                </g>
            </g>
        </g>
    </g>
</svg>