<?xml version="1.0" encoding="UTF-8" standalone="no"?>
<svg width="37px" height="35px" viewBox="0 0 37 35" version="1.1" xmlns="http://www.w3.org/2000/svg" xmlns:xlink="http://www.w3.org/1999/xlink">
    <!-- Generator: sketchtool 39.1 (31720) - http://www.bohemiancoding.com/sketch -->
    <title>B1C63339-2207-4EA1-B008-083EE532A33E</title>
    <desc>Created with sketchtool.</desc>
    <defs></defs>
    <g id="Desktop" stroke="none" stroke-width="1" fill="none" fill-rule="evenodd">
        <g id="1.Home" transform="translate(-1768.000000, -549.000000)" stroke="#2FB56E" fill="#2FB56E">
            <g id="RHS" transform="translate(960.000000, 58.000000)">
                <g id="Banner" transform="translate(10.000000, 52.000000)">
                    <g id="Detail-Bar" transform="translate(0.000000, 409.000000)">
                        <g id="bathroom" transform="translate(798.000000, 31.000000)">
                            <path d="M34.0808078,15.9830753 L4.67719247,15.9830753 L4.67719247,3.52286141 C5.01415897,1.46195065 6.49662077,1.46195063 7.17818534,1.46195063 C7.8597499,1.46195063 9.46184348,1.46195065 9.46184357,3.52286141 L9.46184357,3.65022505 C8.76589558,3.88071359 8.26322486,4.52649281 8.26322486,5.28568002 L8.26322486,6.46089244 C8.26322486,6.76512555 8.51478496,7.01177325 8.82507738,7.01177325 L11.2223148,7.01177325 C11.5326072,7.01177325 11.7841673,6.76512555 11.7841673,6.46089244 L11.7841673,5.28568002 C11.7841673,4.52649281 11.2814966,3.88071359 10.5855486,3.65022505 L10.5855486,3.52286141 C10.7667835,0.611081658 8.47936087,0.360188991 7.17818534,0.360188991 C5.87700981,0.360188991 3.55348743,0.636160566 3.55348743,3.52286141 L3.55348743,15.9830753 L2.91672124,15.9830753 C2.09563748,15.9830753 1.20821994,17.2344943 1.01450136,18.4812619 C0.979194955,18.7084929 0.960426637,18.9048687 0.960426637,19.051594 C0.960426637,19.8580835 1.72334648,21.4611568 2.48701643,21.6497049 L4.58849469,28.2430872 C5.03280766,29.6371095 6.17381777,30.6582222 7.57005874,30.9888241 L7.17818534,32.1414137 C7.08004843,32.4300753 7.23916506,32.7420207 7.53357578,32.8382412 C7.59253284,32.8574853 7.65238886,32.8666667 7.71134592,32.8666667 C7.94657485,32.8666667 8.16577224,32.7206465 8.24428177,32.4898642 L8.71556366,31.1037011 L28.2821152,31.1037011 L28.7533971,32.4898642 C28.8319066,32.72072 29.051104,32.8666667 29.286333,32.8666667 C29.3452151,32.8666667 29.405146,32.8574853 29.4641031,32.8382412 C29.7585138,32.7420207 29.9175555,32.4300753 29.8194935,32.1414137 L29.4276201,30.9888241 C30.8238611,30.6582222 31.9648712,29.6371095 32.4091842,28.2430872 L34.5106625,21.6497784 C35.2741826,21.4611568 36.1352366,19.8580835 36.1352366,19.051594 C36.1352366,18.0998188 35.0515391,15.9830753 34.0808078,15.9830753 Z M8.70612772,6.57751928 L8.70612772,5.28568002 C8.70612772,4.57334466 9.29717339,3.99384077 10.0236961,3.99384077 C10.7502188,3.99384077 11.3412645,4.57334466 11.3412645,5.28568002 L11.3412645,6.57751928 L8.70612772,6.57751928 Z M31.3364954,27.914395 C30.9385539,29.1629848 29.7747701,30.0018661 28.4406325,30.0018661 L8.55689651,30.0018661 C7.22268406,30.0018661 6.05897511,29.1629848 5.6610337,27.9144685 L3.68099049,21.7019284 L33.3166135,21.7019284 L31.3364954,27.914395 L31.3364954,27.914395 Z M34.0817068,20.5999572 C34.0811824,20.5999572 34.0805831,20.6001668 34.0800587,20.6001668 L2.91791986,20.6001668 C2.91717072,20.6001668 2.91634667,20.5999572 2.91559753,20.5999572 C2.56500156,20.5980713 2.28002996,19.8001268 2.28002996,18.8190405 C2.28002996,17.8369066 2.56567578,17.0379143 2.91679615,17.0379143 L34.0808827,17.0379143 C34.4320031,17.0379143 34.7176489,17.8369066 34.7176489,18.8190405 C34.717574,19.8003363 34.4324526,20.5987 34.0817068,20.5999572 L34.0817068,20.5999572 Z" id="Shape"></path>
                        </g>
                    </g>
                </g>
            </g>
        </g>
    </g>
</svg>