<?xml version="1.0" encoding="UTF-8" standalone="no"?>
<svg width="47px" height="35px" viewBox="0 0 47 35" version="1.1" xmlns="http://www.w3.org/2000/svg" xmlns:xlink="http://www.w3.org/1999/xlink">
    <!-- Generator: sketchtool 39.1 (31720) - http://www.bohemiancoding.com/sketch -->
    <title>F8FC0687-E40C-450A-85D8-F6BD440C37EA</title>
    <desc>Created with sketchtool.</desc>
    <defs></defs>
    <g id="Desktop" stroke="none" stroke-width="1" fill="none" fill-rule="evenodd">
        <g id="1.Home" transform="translate(-1614.000000, -550.000000)" fill="#2FB56E">
            <g id="RHS" transform="translate(960.000000, 58.000000)">
                <g id="Banner" transform="translate(10.000000, 52.000000)">
                    <g id="Detail-Bar" transform="translate(0.000000, 409.000000)">
                        <path d="M656.4691,48.0510057 C656.4691,48.0515919 656.4691,48.0492472 656.4691,48.0510057 C656.600112,48.0123174 656.4691,48.0492472 656.4691,48.0510057 C656.4691,48.0521781 656.4691,48.0492472 656.4691,48.0510057 C656.4691,48.9127006 657.1835,49.6501237 658.047712,49.6501237 C658.914275,49.6501237 659.6839,49.1155212 659.691537,48.2538264 C659.70975,47.5492297 660.056962,46.8757009 661.285425,46.8757009 L687.475,46.8757009 L687.475,55.668505 L647.525,55.668505 L647.525,43.3585793 L651.963562,43.3585793 C651.976487,43.3585793 653.199075,43.4295079 654.36585,44.0115915 C655.86985,44.7619108 656.4691,46.0978309 656.4691,48.0510057 M689.2375,37.2000993 C688.36565,37.2000993 687.475,37.9064545 687.475,38.7751836 L687.475,43.3585793 L661.28425,43.3585793 C660.33015,43.3585793 659.480625,43.6000883 658.775038,44.0233153 C658.1,42.8292525 657.0895,41.9487997 655.777025,41.2952012 C653.94285,40.3784049 652.160962,40.4276446 651.963562,40.4276446 L647.525,40.4276446 L647.525,32.5750843 C647.525,31.7057691 646.633762,31 645.7625,31 C644.891237,31 644,31.7051829 644,32.5750843 L644,63.5755807 C644,64.4448959 644.891237,65.150665 645.7625,65.150665 C646.633762,65.150665 647.525,64.4454821 647.525,63.5755807 L647.525,59.1856267 L687.475,59.1856267 L687.475,63.5749945 C687.475,64.4443097 688.36565,65.1500788 689.2375,65.1500788 C690.108175,65.1500788 691,64.4448959 691,63.5749945 L691,38.7751836 C691,37.9064545 690.108175,37.2000993 689.2375,37.2000993" id="Bed"></path>
                    </g>
                </g>
            </g>
        </g>
    </g>
</svg>