<?xml version="1.0" encoding="UTF-8" standalone="no"?>
<svg width="30px" height="30px" viewBox="0 0 30 30" version="1.1" xmlns="http://www.w3.org/2000/svg" xmlns:xlink="http://www.w3.org/1999/xlink">
    <!-- Generator: sketchtool 39.1 (31720) - http://www.bohemiancoding.com/sketch -->
    <title>99EB2466-1538-47FB-BBDF-878854342525</title>
    <desc>Created with sketchtool.</desc>
    <defs></defs>
    <g id="Desktop" stroke="none" stroke-width="1" fill="none" fill-rule="evenodd">
        <g id="1.Home" transform="translate(-100.000000, -980.000000)" fill="#DDDDDD">
            <g id="LHS" transform="translate(100.000000, 61.000000)">
                <g id="Social-Icons" transform="translate(0.000000, 919.000000)">
                    <g id="fb">
                        <path d="M30,15 C30,6.71588235 23.2840686,0 15,0 C6.71588235,0 0,6.71588235 0,15 C0,23.2840686 6.71588235,30 15,30 C23.2840686,30 30,23.2840686 30,15 L30,15 Z M1.36362745,15 C1.36362745,7.46862745 7.46862745,1.36362745 15,1.36362745 C22.5313725,1.36362745 28.6363725,7.46862745 28.6363725,15 C28.6363725,22.5313725 22.5313725,28.6363725 15,28.6363725 C7.46862745,28.6363725 1.36362745,22.5313725 1.36362745,15 L1.36362745,15 Z" id="Shape"></path>
                        <path d="M15.5754412,23.6576961 L15.5754412,15 L18.4322549,15 L18.8836275,12.1309314 L15.5754412,12.1309314 L15.5754412,10.6923039 C15.5754412,9.94367647 15.8208824,9.22911765 16.8954412,9.22911765 L19.0431373,9.22911765 L19.0431373,6.3654902 L15.9940686,6.3654902 C13.4304412,6.3654902 12.7308824,8.05362745 12.7308824,10.3936765 L12.7308824,12.1296078 L10.9718137,12.1296078 L10.9718137,15 L12.7308824,15 L12.7308824,23.6576961 L15.5754412,23.6576961 L15.5754412,23.6576961 L15.5754412,23.6576961 Z" id="Shape"></path>
                    </g>
                </g>
            </g>
        </g>
    </g>
</svg>