<?xml version="1.0" encoding="UTF-8" standalone="no"?>
<svg width="38px" height="48px" viewBox="0 0 38 48" version="1.1" xmlns="http://www.w3.org/2000/svg" xmlns:xlink="http://www.w3.org/1999/xlink">
    <!-- Generator: sketchtool 39.1 (31720) - http://www.bohemiancoding.com/sketch -->
    <title>0AC7B9BB-C547-4982-9C21-29518E136A52</title>
    <desc>Created with sketchtool.</desc>
    <defs>
        <polygon id="path-1" points="0.000373482726 0.624220143 0.000373482726 47.0697914 37.5734827 47.0697914 37.5734827 0.624220143"></polygon>
        <polygon id="path-3" points="3.23510738 2.9957703 3.23510738 0.568170677 0.4454155 0.568170677 0.4454155 2.9957703 3.23510738 2.9957703"></polygon>
    </defs>
    <g id="Desktop" stroke="none" stroke-width="1" fill="none" fill-rule="evenodd">
        <g id="1.Home" transform="translate(-1004.000000, -542.000000)">
            <g id="RHS" transform="translate(960.000000, 58.000000)">
                <g id="Banner" transform="translate(10.000000, 52.000000)">
                    <g id="Detail-Bar" transform="translate(0.000000, 409.000000)">
                        <g id="Location_carousel" transform="translate(34.000000, 23.000000)">
                            <path d="M19.3411765,10.3910929 C14.2872082,10.3910929 10.1908497,14.3630738 10.1908497,19.2619708 C10.1908497,24.161592 14.2872082,28.1328487 19.3411765,28.1328487 C23.9290383,28.1328487 27.7169001,24.856055 28.3787115,20.5871713 C28.3787115,20.5871713 28.4855275,20.0498496 28.4855275,19.1750724 C28.4855275,18.5870599 28.3787115,17.9367703 28.3787115,17.9367703 C27.7169001,13.6678866 23.9290383,10.3910929 19.3411765,10.3910929" id="Fill-1" fill="#2FB56E"></path>
                            <g id="Group-5" transform="translate(0.000000, 0.100295)">
                                <mask id="mask-2" fill="white">
                                    <use xlink:href="#path-1"></use>
                                </mask>
                                <g id="Clip-4"></g>
                                <path d="M18.8141923,0.623858066 C8.43958917,0.623858066 0.000373482726,9.00448418 0.000373482726,19.3055648 C0.000373482726,26.9910038 10.1112979,39.4732342 15.1070028,45.1715965 L16.377591,46.596006 C16.8616246,47.1557765 17.7295985,47.2303643 18.3070028,46.7618371 L18.3316527,46.742285 C18.909057,46.2737578 18.9859944,45.4315675 18.5027077,44.871797 L15.4416433,41.3263425 C15.427451,41.3096869 15.4102708,41.2981005 15.3953315,41.2828933 C9.89542484,34.7227885 2.76041083,24.9315118 2.76041083,19.3041165 C2.76041083,10.5143438 9.96265173,3.36332999 18.8141923,3.36332999 C27.2056022,3.36332999 34.1112979,9.79091466 34.8059757,17.9477774 L37.5734827,17.9477774 C36.8698413,8.27888258 28.7264239,0.623858066 18.8141923,0.623858066" id="Fill-3" fill="#2FB56E" mask="url(#mask-2)"></path>
                            </g>
                            <g id="Group-8" transform="translate(34.360411, 17.479974)">
                                <mask id="mask-4" fill="white">
                                    <use xlink:href="#path-3"></use>
                                </mask>
                                <g id="Clip-7"></g>
                                <path d="M3.20993464,0.570343137 L0.4454155,0.568170677 L0.496956116,1.69495321 C0.510401494,2.42417558 1.13710551,3.00929144 1.88929972,2.99553253 C2.64074697,2.98249777 3.21217554,2.42272727 3.23084967,1.64571078 C3.24802988,0.938937166 3.20993464,0.570343137 3.20993464,0.570343137" id="Fill-6" fill="#2FB56E" mask="url(#mask-4)"></path>
                            </g>
                        </g>
                    </g>
                </g>
            </g>
        </g>
    </g>
</svg>