<?xml version="1.0" encoding="UTF-8" standalone="no"?>
<svg width="319px" height="125px" viewBox="0 0 319 125" version="1.1" xmlns="http://www.w3.org/2000/svg" xmlns:xlink="http://www.w3.org/1999/xlink">
    <!-- Generator: sketchtool 39.1 (31720) - http://www.bohemiancoding.com/sketch -->
    <title>7229142A-6818-419C-9DA6-E7178CCB2985</title>
    <desc>Created with sketchtool.</desc>
    <defs></defs>
    <g id="Desktop" stroke="none" stroke-width="1" fill="none" fill-rule="evenodd">
        <g id="1.Home" transform="translate(-100.000000, -61.000000)">
            <g id="LHS" transform="translate(100.000000, 61.000000)">
                <g id="Desktop-Logo">
                    <g id="Logo">
                        <path d="M38.1569571,52.3585366 C31.008319,52.3585366 25.2131524,46.4942073 25.2131524,39.2625 C25.2131524,32.0292683 31.008319,26.164939 38.1569571,26.164939 C45.3055952,26.164939 51.1007619,32.0292683 51.1007619,39.2625 C51.1007619,46.4942073 45.3055952,52.3585366 38.1569571,52.3585366 M116.119038,36.4682927 L116.119038,20.297561 C116.119038,18.7625 114.867343,17.5079268 113.337662,17.5079268 C111.807981,17.5079268 110.557805,18.7625 110.557805,20.297561 L110.557805,36.4682927 L106.56119,36.4682927 L106.56119,27.1969512 C106.56119,25.6618902 105.309495,24.4057927 103.779814,24.4057927 C102.251652,24.4057927 100.999957,25.6618902 100.999957,27.1969512 L100.999957,36.4682927 L97.0033429,36.4682927 L97.0033429,20.297561 C97.0033429,18.7625 95.7531667,17.5079268 94.2234857,17.5079268 C92.6938048,17.5079268 91.4421095,18.7625 91.4421095,20.297561 L91.4421095,36.4682927 L76.4096143,36.4682927 C74.9786714,16.1131098 58.4195333,0.000304878049 38.2602524,0.000304878049 C17.163719,0.000304878049 0,17.6405488 0,39.3265244 C0,55.504878 20.5633476,81.7807927 30.721219,93.7762195 L33.3066381,96.7746951 C34.2894619,97.9530488 36.0545952,98.110061 37.228819,97.1237805 C38.4531714,96.0948171 38.6111524,94.3234756 37.6268095,93.145122 L31.4017524,85.6817073 C20.1243429,71.7807927 5.61288095,51.1679878 5.61288095,39.3234756 C5.61288095,20.8204268 20.2595381,5.76707317 38.2602524,5.76707317 C55.3267524,5.76707317 69.3688286,19.297561 70.7815429,36.4682927 L56.6392095,36.4682927 C55.2933333,27.4820122 47.5902429,20.5841463 38.2602524,20.5841463 C27.9838952,20.5841463 19.651919,28.9454268 19.651919,39.2579268 C19.651919,49.5719512 27.9838952,57.9317073 38.2602524,57.9317073 C47.5902429,57.9317073 55.2933333,51.0353659 56.6392095,42.0490854 L119.713105,42.0490854 C121.242786,42.0490854 122.494481,40.7929878 122.494481,39.2579268 C122.494481,37.7228659 121.242786,36.4682927 119.713105,36.4682927 L116.119038,36.4682927 Z" id="Fill-1" fill="#2FB56E"></path>
                        <path d="M70.6612343,56.8900915 C70.6612343,56.111128 70.9316248,55.4510671 71.4678486,54.9114329 C72.0071105,54.3717988 72.66182,54.1019817 73.4395724,54.1019817 C74.2158057,54.1019817 74.8735533,54.3717988 75.4112962,54.9114329 C75.949039,55.4510671 76.2179105,56.111128 76.2179105,56.8900915 L76.2179105,61.2971037 C78.1303914,59.1995427 80.4317486,57.4754573 83.1189438,56.126372 C85.8091771,54.7772866 88.7348629,54.1019817 91.9020771,54.1019817 C92.8575581,54.1019817 93.618601,54.3717988 94.1882438,54.9114329 C94.7548486,55.4510671 95.0404295,56.111128 95.0404295,56.8900915 C95.0404295,57.6705793 94.7548486,58.3291159 94.1882438,58.86875 C93.618601,59.4083841 92.8575581,59.6782012 91.9020771,59.6782012 C89.7511057,59.6782012 87.749001,60.0989329 85.8972819,60.9373476 C84.0455629,61.778811 82.4156248,62.9160061 81.0135438,64.3550305 C79.6099438,65.7940549 78.4736962,67.4434451 77.607839,69.3016768 C76.7404629,71.1614329 76.2771533,73.111128 76.2179105,75.1477134 L76.2179105,95.0242378 C76.2179105,95.8047256 75.949039,96.4632622 75.4112962,97.0028963 C74.8735533,97.5425305 74.2158057,97.8123476 73.4395724,97.8123476 C72.66182,97.8123476 72.0071105,97.5425305 71.4678486,97.0028963 C70.9316248,96.4632622 70.6612343,95.8047256 70.6612343,95.0242378 L70.6612343,56.8900915 Z" id="Fill-3" fill="#FEFEFE"></path>
                        <path d="M132.593565,73.1693598 C132.23507,71.311128 131.577322,69.5733232 130.621841,67.9528963 C129.664841,66.3355183 128.484541,64.9407012 127.08246,63.7699695 C125.677341,62.6007622 124.092975,61.6724085 122.33088,60.9818598 C120.568784,60.2943598 118.701875,59.9483232 116.730151,59.9483232 C114.758427,59.9483232 112.889999,60.2943598 111.127903,60.9818598 C109.365808,61.6724085 107.781441,62.6007622 106.377841,63.7699695 C104.974241,64.9407012 103.809132,66.3355183 102.882513,67.9528963 C101.955894,69.5733232 101.314856,71.311128 100.95636,73.1693598 L132.593565,73.1693598 Z M100.866737,78.7455793 C101.165989,80.666311 101.793356,82.4483232 102.750356,84.0977134 C103.702799,85.7471037 104.884618,87.1708841 106.289737,88.3705793 C107.691818,89.56875 109.291375,90.513872 111.083851,91.201372 C112.877846,91.8919207 114.758427,92.2364329 116.730151,92.2364329 C118.940365,92.2364329 121.001713,91.8309451 122.914194,91.0230183 C124.826675,90.2135671 126.529527,89.0885671 128.022751,87.6495427 C128.560494,87.1114329 129.216722,86.8400915 129.994475,86.8400915 C130.770708,86.8400915 131.428456,87.1114329 131.966199,87.6495427 C132.503941,88.1907012 132.772813,88.8492378 132.772813,89.6282012 C132.772813,90.408689 132.503941,91.0672256 131.966199,91.6068598 C129.994475,93.826372 127.767551,95.3995427 125.288465,96.3278963 C122.80938,97.2592988 119.956608,97.7227134 116.730151,97.7227134 C113.742184,97.7227134 110.950175,97.1830793 108.351084,96.103811 C105.751994,95.0245427 103.465827,93.5260671 101.494103,91.6068598 C99.5223795,89.6876524 97.9683938,87.4117378 96.8336652,84.7714939 C95.6989367,82.1342988 95.1308129,79.25625 95.1308129,76.1373476 C95.1308129,73.138872 95.6822271,70.3370427 96.7896129,67.728811 C97.8939605,65.1205793 99.4175652,62.8416159 101.358908,60.8919207 C103.30177,58.9452744 105.601608,57.3858232 108.259941,56.2150915 C110.918275,55.0458841 113.802946,54.4025915 116.909399,54.2821646 C119.716599,54.2821646 122.422022,54.8522866 125.021113,55.9910061 C127.620203,57.13125 129.904851,58.6891768 131.876575,60.6678354 C133.848299,62.6464939 135.431146,64.9407012 136.626637,67.5474085 C137.820608,70.1556402 138.419113,72.9605183 138.419113,75.9574695 C138.419113,76.8568598 138.11986,77.5474085 137.522875,78.0275915 C136.925889,78.5077744 136.297003,78.7455793 135.640775,78.7455793 L100.866737,78.7455793 Z" id="Fill-5" fill="#FEFEFE"></path>
                        <path d="M179.19749,76.1378049 C179.19749,73.9198171 178.779752,71.8207317 177.942757,69.8420732 C177.105762,67.8634146 175.955843,66.1393293 174.491481,64.6698171 C173.027119,63.2018293 171.312114,62.0478659 169.338871,61.2079268 C167.367148,60.3679878 165.275419,59.9487805 163.065205,59.9487805 C160.85499,59.9487805 158.778452,60.3679878 156.83559,61.2079268 C154.894248,62.0478659 153.191395,63.2018293 151.728552,64.6698171 C150.262671,66.1393293 149.112752,67.8634146 148.278795,69.8420732 C147.440281,71.8207317 147.022543,73.9198171 147.022543,76.1378049 C147.022543,78.3573171 147.440281,80.4411585 148.278795,82.3893293 C149.112752,84.3375 150.262671,86.0463415 151.728552,87.5158537 C153.191395,88.9853659 154.894248,90.1393293 156.83559,90.9762195 C158.778452,91.8176829 160.85499,92.2368902 163.065205,92.2368902 C165.216176,92.2368902 167.247143,91.8314024 169.161143,91.0234756 C171.070586,90.2125 172.759767,89.0890244 174.224129,87.65 C175.686971,86.2109756 176.852081,84.517378 177.717938,82.5692073 C178.585314,80.6195122 179.077486,78.4762195 179.19749,76.1378049 L179.19749,76.1378049 Z M179.19749,89.6286585 C177.225767,91.8481707 174.851495,93.7521341 172.073157,95.3405488 C169.2933,96.9289634 166.291662,97.7231707 163.065205,97.7231707 C160.077238,97.7231707 157.28371,97.1835366 154.684619,96.1042683 C152.085529,95.025 149.800881,93.5265244 147.830676,91.6057927 C145.857433,89.6881098 144.303448,87.4121951 143.168719,84.7719512 C142.032471,82.1347561 141.465867,79.2567073 141.465867,76.1378049 C141.465867,73.1393293 142.017281,70.3070122 143.124667,67.6393293 C144.229014,64.970122 145.752619,62.6469512 147.695481,60.6682927 C149.635305,58.6896341 151.936662,57.1301829 154.596514,55.9914634 C157.254848,54.8527439 160.136481,54.282622 163.244452,54.282622 C166.112414,54.282622 168.8467,54.8664634 171.444271,56.0356707 C174.043362,57.204878 176.329529,58.7795732 178.301252,60.7582317 C180.272976,62.7368902 181.840633,65.0463415 183.007262,67.6835366 C184.170852,70.3237805 184.754167,73.1393293 184.754167,76.1378049 L184.754167,95.114939 C184.754167,95.8939024 184.485295,96.5539634 183.947552,97.0935976 C183.40981,97.6332317 182.752062,97.9015244 181.975829,97.9015244 C181.198076,97.9015244 180.541848,97.6332317 180.004105,97.0935976 C179.466362,96.5539634 179.19749,95.8939024 179.19749,95.114939 L179.19749,89.6286585 Z" id="Fill-7" fill="#FEFEFE"></path>
                        <path d="M190.938969,43.1295732 C190.938969,42.3506098 191.20784,41.6905488 191.745583,41.1509146 C192.283326,40.6112805 192.939555,40.3414634 193.717307,40.3414634 C194.49354,40.3414634 195.149769,40.6112805 195.689031,41.1509146 C196.225255,41.6905488 196.495645,42.3506098 196.495645,43.1295732 L196.495645,95.0243902 C196.495645,95.804878 196.225255,96.4634146 195.689031,97.0030488 C195.149769,97.5426829 194.49354,97.8125 193.717307,97.8125 C192.939555,97.8125 192.283326,97.5426829 191.745583,97.0030488 C191.20784,96.4634146 190.938969,95.804878 190.938969,95.0243902 L190.938969,43.1295732 Z" id="Fill-9" fill="#FEFEFE"></path>
                        <path d="M207.786422,76.947561 C207.845665,79.1060976 208.324165,81.1152439 209.220403,82.9734756 C210.116641,84.8332317 211.281751,86.4506098 212.715732,87.8301829 C214.149713,89.2097561 215.822184,90.3027439 217.734665,91.1121951 C219.647146,91.9216463 221.679632,92.3271341 223.830603,92.3271341 C226.039299,92.3271341 228.132546,91.9064024 230.102751,91.0679878 C232.074475,90.2280488 233.790999,89.0740854 235.25688,87.6045732 C236.719722,86.1365854 237.869641,84.4277439 238.706637,82.4780488 C239.542113,80.5314024 239.962889,78.4460366 239.962889,76.2265244 C239.962889,74.010061 239.542113,71.9094512 238.706637,69.9307927 C237.869641,67.9536585 236.719722,66.2310976 235.25688,64.760061 C233.790999,63.2920732 232.074475,62.1381098 230.102751,61.2966463 C228.132546,60.4582317 226.039299,60.0390244 223.830603,60.0390244 C221.679632,60.0390244 219.647146,60.4429878 217.734665,61.252439 C215.822184,62.0618902 214.149713,63.1868902 212.715732,64.6259146 C211.281751,66.0634146 210.116641,67.7722561 209.220403,69.7509146 C208.324165,71.7310976 207.845665,73.8896341 207.786422,76.2265244 L207.786422,76.947561 Z M202.229746,43.1289634 C202.229746,42.3515244 202.500137,41.6914634 203.03636,41.1518293 C203.575622,40.6121951 204.230332,40.3408537 205.008084,40.3408537 C205.784318,40.3408537 206.442065,40.6121951 206.979808,41.1518293 C207.517551,41.6914634 207.786422,42.3515244 207.786422,43.1289634 L207.786422,62.5573171 C209.758146,60.3987805 212.118746,58.5253049 214.866703,56.9353659 C217.61466,55.3469512 220.66187,54.4932927 224.008332,54.3713415 C226.876294,54.3713415 229.60906,54.9567073 232.20967,56.1259146 C234.80876,57.295122 237.093408,58.8698171 239.065132,60.8469512 C241.038375,62.8256098 242.606032,65.135061 243.769622,67.7722561 C244.936251,70.4125 245.518046,73.2310976 245.518046,76.2265244 C245.518046,79.1655488 244.949922,81.9384146 243.815194,84.5466463 C242.680465,87.154878 241.140151,89.4490854 239.200327,91.4262195 C237.257465,93.4064024 234.971299,94.9643293 232.343346,96.1030488 C229.713875,97.2432927 226.876294,97.8134146 223.830603,97.8134146 C220.604146,97.8134146 217.61466,97.197561 214.866703,95.9689024 C212.118746,94.7402439 209.758146,93.0466463 207.786422,90.8881098 L207.786422,95.0237805 C207.786422,95.8042683 207.517551,96.4643293 206.979808,97.002439 C206.442065,97.5435976 205.784318,97.8134146 205.008084,97.8134146 C204.230332,97.8134146 203.575622,97.5435976 203.03636,97.002439 C202.500137,96.4643293 202.229746,95.8042683 202.229746,95.0237805 L202.229746,43.1289634 Z" id="Fill-11" fill="#FEFEFE"></path>
                        <path d="M248.92527,56.9801829 C248.92527,56.2012195 249.194141,55.5411585 249.730365,55.0015244 C250.269627,54.4618902 250.925856,54.1920732 251.702089,54.1920732 C252.478322,54.1920732 253.13607,54.4618902 253.675332,55.0015244 C254.211556,55.5411585 254.480427,56.2012195 254.480427,56.9801829 L254.480427,81.6234756 C254.480427,83.0625 254.764489,84.4283537 255.332613,85.7164634 C255.900737,87.0060976 256.66178,88.1310976 257.61878,89.0884146 C258.57426,90.0472561 259.693799,90.7987805 260.980432,91.3368902 C262.262508,91.8780488 263.623575,92.1463415 265.056037,92.1463415 C266.490018,92.1463415 267.834375,91.8780488 269.089108,91.3368902 C270.34536,90.7987805 271.432999,90.0777439 272.361137,89.1783537 C273.286237,88.2789634 274.032089,87.2164634 274.601732,85.9862805 C275.168337,84.757622 275.48278,83.4527439 275.542022,82.0731707 L275.542022,56.9801829 C275.542022,56.2012195 275.810894,55.5411585 276.350156,55.0015244 C276.88638,54.4618902 277.544127,54.1920732 278.32188,54.1920732 C279.096594,54.1920732 279.75586,54.4618902 280.292084,55.0015244 C280.831346,55.5411585 281.100218,56.2012195 281.100218,56.9801829 L281.100218,95.0243902 C281.100218,95.804878 280.831346,96.4634146 280.292084,97.0030488 C279.75586,97.5426829 279.096594,97.8125 278.32188,97.8125 C277.544127,97.8125 276.88638,97.5426829 276.350156,97.0030488 C275.810894,96.4634146 275.542022,95.804878 275.542022,95.0243902 L275.542022,93.8551829 C274.167284,95.0564024 272.584437,96.0137195 270.79348,96.7332317 C269.001003,97.4527439 267.087003,97.8125 265.056037,97.8125 C262.845822,97.8125 260.754094,97.3948171 258.78237,96.5533537 C256.810646,95.714939 255.094122,94.5609756 253.62976,93.089939 C252.165399,91.6234756 251.01548,89.8993902 250.178484,87.9192073 C249.341489,85.9405488 248.92527,83.8429878 248.92527,81.6234756 L248.92527,56.9801829 Z" id="Fill-13" fill="#FEFEFE"></path>
                        <path d="M313.094702,55.8108232 C313.272431,55.3321646 313.600545,54.9434451 314.079045,54.6416159 C314.557545,54.3428354 315.066426,54.1919207 315.60265,54.1919207 C316.439645,54.1919207 317.112583,54.4769817 317.619945,55.0471037 C318.127307,55.6172256 318.380988,56.2315549 318.380988,56.8900915 C318.380988,57.2498476 318.292883,57.6096037 318.113636,57.9693598 L297.679407,112.29253 C297.199388,113.490701 296.363912,114.091311 295.168421,114.091311 C294.331426,114.091311 293.660007,113.80625 293.152645,113.236128 C292.643764,112.666006 292.390083,112.022713 292.390083,111.303201 C292.390083,111.124848 292.405274,110.957165 292.435655,110.809299 C292.464517,110.658384 292.510088,110.495274 292.569331,110.313872 L297.94676,95.5653963 C295.438812,88.6705793 293.315183,82.8382622 291.584988,78.0714939 C289.850236,73.3047256 288.446636,69.4678354 287.37115,66.5592988 C286.295664,63.6522866 285.519431,61.5379573 285.040931,60.2178354 C284.562431,58.8992378 284.32546,58.2102134 284.32546,58.1492378 C284.144693,57.7894817 284.056588,57.3702744 284.056588,56.8900915 C284.056588,56.111128 284.279888,55.466311 284.728007,54.9571646 C285.176126,54.4480183 285.817164,54.1919207 286.655679,54.1919207 C287.311907,54.1919207 287.878512,54.3428354 288.358531,54.6416159 C288.835512,54.9434451 289.163626,55.3321646 289.342874,55.8108232 L300.993969,87.7407012 L313.094702,55.8108232 Z" id="Fill-15" fill="#FEFEFE"></path>
                        <path d="M70.5603695,112.800457 C70.5603695,112.641921 70.6150552,112.507774 70.7244267,112.398018 C70.8337981,112.288262 70.9674743,112.233384 71.1254552,112.233384 C71.2834362,112.233384 71.4171124,112.288262 71.5264838,112.398018 C71.6358552,112.507774 71.690541,112.641921 71.690541,112.800457 L71.690541,113.696799 C72.0794171,113.26997 72.5472838,112.91936 73.094141,112.64497 C73.6409981,112.370579 74.2364648,112.233384 74.880541,112.233384 C75.074979,112.233384 75.2299219,112.288262 75.3453695,112.398018 C75.4608171,112.507774 75.518541,112.641921 75.518541,112.800457 C75.518541,112.958994 75.4608171,113.09314 75.3453695,113.202896 C75.2299219,113.312652 75.074979,113.36753 74.880541,113.36753 C74.4430552,113.36753 74.0359505,113.452896 73.6592267,113.623628 C73.2825029,113.79436 72.9513505,114.026067 72.6657695,114.31875 C72.3801886,114.609909 72.1492933,114.946799 71.9730838,115.324848 C71.7968743,115.702896 71.7026933,116.099238 71.690541,116.513872 L71.690541,120.556555 C71.690541,120.715091 71.6358552,120.849238 71.5264838,120.958994 C71.4171124,121.06875 71.2834362,121.123628 71.1254552,121.123628 C70.9674743,121.123628 70.8337981,121.06875 70.7244267,120.958994 C70.6150552,120.849238 70.5603695,120.715091 70.5603695,120.556555 L70.5603695,112.800457 Z" id="Fill-17" fill="#B2B2B2"></path>
                        <path d="M76.5030357,112.800457 C76.5030357,112.641921 76.5577214,112.507774 76.6670929,112.398018 C76.7779833,112.288262 76.9116595,112.233384 77.0681214,112.233384 C77.2276214,112.233384 77.3597786,112.288262 77.470669,112.398018 C77.5785214,112.507774 77.6332071,112.641921 77.6332071,112.800457 L77.6332071,120.556555 C77.6332071,120.715091 77.5785214,120.849238 77.470669,120.958994 C77.3597786,121.06875 77.2276214,121.123628 77.0681214,121.123628 C76.9116595,121.123628 76.7779833,121.06875 76.6670929,120.958994 C76.5577214,120.849238 76.5030357,120.715091 76.5030357,120.556555 L76.5030357,112.800457 Z M76.32075,110.184604 C76.32075,109.977287 76.3951833,109.800457 76.5394929,109.654116 C76.6853214,109.507774 76.861531,109.434604 77.0681214,109.434604 C77.2747119,109.434604 77.4509214,109.507774 77.598269,109.654116 C77.7425786,109.800457 77.8154929,109.977287 77.8154929,110.184604 C77.8154929,110.391921 77.7425786,110.56875 77.598269,110.715091 C77.4509214,110.861433 77.2747119,110.934604 77.0681214,110.934604 C76.861531,110.934604 76.6853214,110.861433 76.5394929,110.715091 C76.3951833,110.56875 76.32075,110.391921 76.32075,110.184604 L76.32075,110.184604 Z" id="Fill-19" fill="#B2B2B2"></path>
                        <path d="M86.182559,116.605488 C86.1582543,116.166463 86.0579971,115.753354 85.8817876,115.369207 C85.7055781,114.986585 85.4686067,114.65122 85.1708733,114.364634 C84.87314,114.078049 84.5298352,113.852439 84.140959,113.687805 C83.7520829,113.523171 83.3389019,113.440854 82.9014162,113.440854 C82.4517781,113.440854 82.0294829,113.524695 81.6345305,113.696951 C81.2395781,113.867683 80.8932352,114.102439 80.5955019,114.40122 C80.2977686,114.7 80.0638352,115.049085 79.8937019,115.453049 C79.7235686,115.855488 79.6385019,116.282317 79.6385019,116.733537 C79.6385019,117.184756 79.7235686,117.608537 79.8937019,118.004878 C80.0638352,118.40122 80.2977686,118.74878 80.5955019,119.047561 C80.8932352,119.346341 81.2395781,119.581098 81.6345305,119.750305 C82.0294829,119.922561 82.4517781,120.006402 82.9014162,120.006402 C83.3389019,120.006402 83.7520829,119.92561 84.140959,119.760976 C84.5298352,119.596341 84.87314,119.37378 85.1708733,119.093293 C85.4686067,118.812805 85.7055781,118.482012 85.8817876,118.103963 C86.0579971,117.727439 86.1582543,117.318902 86.182559,116.879878 L86.182559,116.605488 Z M86.182559,113.001829 C86.182559,112.843293 86.2372448,112.709146 86.3466162,112.59939 C86.4559876,112.489634 86.5896638,112.434756 86.7476448,112.434756 C86.9056257,112.434756 87.0393019,112.489634 87.1486733,112.59939 C87.2580448,112.709146 87.3127305,112.843293 87.3127305,113.001829 L87.3127305,120.062805 C87.3127305,120.660366 87.1972829,121.22439 86.9663876,121.754878 C86.7354924,122.285366 86.4225686,122.751829 86.0276162,123.154268 C85.6326638,123.556707 85.1678352,123.87378 84.6331305,124.105488 C84.0984257,124.335671 83.5211876,124.451524 82.9014162,124.451524 C82.2816448,124.451524 81.7104829,124.343293 81.1879305,124.12378 C80.6653781,123.904268 80.2035876,123.59939 79.802559,123.209146 L79.7843305,123.190854 C79.674959,123.081098 79.6202733,122.953049 79.6202733,122.805183 C79.6202733,122.648171 79.6779971,122.510976 79.7934448,122.395122 C79.9088924,122.279268 80.0456067,122.221341 80.2035876,122.221341 C80.3615686,122.221341 80.4891686,122.270122 80.5863876,122.367683 C80.8901971,122.671037 81.23654,122.910366 81.6254162,123.081098 C82.0142924,123.250305 82.4396257,123.337195 82.9014162,123.337195 C83.3510543,123.337195 83.7763876,123.250305 84.1774162,123.081098 C84.5784448,122.910366 84.9278257,122.674085 85.225559,122.376829 C85.5232924,122.078049 85.7572257,121.728963 85.927359,121.334146 C86.0974924,120.937805 86.182559,120.5125 86.182559,120.062805 L86.182559,119.660366 C85.7815305,120.111585 85.2984733,120.468293 84.7333876,120.730488 C84.1683019,120.992683 83.5576448,121.12378 82.9014162,121.12378 C82.2922781,121.12378 81.7256733,121.014024 81.1970448,120.794512 C80.6684162,120.575 80.2035876,120.270122 79.802559,119.878354 C79.4015305,119.489634 79.0855686,119.02622 78.8546733,118.489634 C78.6237781,117.953049 78.5083305,117.367683 78.5083305,116.733537 C78.5083305,116.12378 78.619221,115.553659 78.845559,115.023171 C79.0703781,114.492683 79.3802638,114.029268 79.7752162,113.632927 C80.1701686,113.236585 80.6380352,112.919512 81.1788162,112.681707 C81.7195971,112.443902 82.3059495,112.312805 82.9378733,112.288415 C83.5697971,112.30061 84.1652638,112.440854 84.7242733,112.709146 C85.2832829,112.977439 85.7693781,113.343293 86.182559,113.806707 L86.182559,113.001829 Z" id="Fill-21" fill="#B2B2B2"></path>
                        <path d="M88.5159681,110.001829 C88.5159681,109.843293 88.5706538,109.709146 88.6800252,109.59939 C88.7909157,109.489634 88.9245919,109.434756 89.0810538,109.434756 C89.2405538,109.434756 89.372711,109.489634 89.4820824,109.59939 C89.5914538,109.709146 89.6461395,109.843293 89.6461395,110.001829 L89.6461395,113.075 C89.9256443,112.831098 90.2492014,112.635976 90.6122538,112.489634 C90.9768252,112.343293 91.3657014,112.270122 91.7788824,112.270122 C92.2285205,112.270122 92.6553729,112.355488 93.0548824,112.52622 C93.455911,112.696951 93.8052919,112.931707 94.1045443,113.230488 C94.4007586,113.529268 94.6346919,113.879878 94.8063443,114.282317 C94.9749586,114.684756 95.0615443,115.111585 95.0615443,115.56128 L95.0615443,120.556707 C95.0615443,120.715244 95.0053395,120.84939 94.8959681,120.957622 C94.7865967,121.068902 94.6529205,121.12378 94.4964586,121.12378 C94.3369586,121.12378 94.2032824,121.068902 94.093911,120.957622 C93.9860586,120.84939 93.9298538,120.715244 93.9298538,120.556707 L93.9298538,115.56128 C93.9298538,115.270122 93.87213,114.992683 93.7566824,114.730488 C93.6412348,114.468293 93.4862919,114.239634 93.2933729,114.044512 C93.0989348,113.84939 92.8695586,113.696951 92.6082824,113.587195 C92.3470062,113.477439 92.0705395,113.422561 91.7788824,113.422561 C91.4872252,113.422561 91.2137967,113.477439 90.9585967,113.587195 C90.7033967,113.696951 90.4785776,113.843293 90.2841395,114.02622 C90.0897014,114.209146 89.9393157,114.42561 89.8284252,114.674085 C89.7190538,114.924085 89.6582919,115.190854 89.6461395,115.471341 L89.6461395,120.556707 C89.6461395,120.727439 89.5944919,120.864634 89.4927157,120.968293 C89.3879014,121.071951 89.2511871,121.12378 89.0810538,121.12378 C88.9245919,121.12378 88.7924348,121.068902 88.6891395,120.957622 C88.5858443,120.84939 88.5281205,120.715244 88.5159681,120.556707 L88.5159681,110.001829 Z" id="Fill-23" fill="#B2B2B2"></path>
                        <path d="M97.0279514,110.001829 C97.0279514,109.843293 97.0826371,109.709146 97.1920086,109.59939 C97.30138,109.489634 97.4365752,109.434756 97.5930371,109.434756 C97.7510181,109.434756 97.8846943,109.489634 97.9940657,109.59939 C98.1034371,109.709146 98.1581229,109.843293 98.1581229,110.001829 L98.1581229,112.233537 L99.373361,112.233537 C99.532861,112.233537 99.6680562,112.288415 99.7789467,112.398171 C99.8898371,112.507927 99.9445229,112.642073 99.9445229,112.80061 C99.9445229,112.959146 99.8898371,113.093293 99.7789467,113.203049 C99.6680562,113.312805 99.532861,113.367683 99.373361,113.367683 L98.1581229,113.367683 L98.1581229,120.556707 C98.1581229,120.715244 98.1049562,120.84939 97.9971038,120.957622 C97.8892514,121.068902 97.7570943,121.12378 97.6021514,121.12378 C97.4456895,121.12378 97.3150514,121.068902 97.207199,120.957622 C97.1008657,120.84939 97.04618,120.715244 97.04618,120.556707 L97.04618,113.367683 L95.8309419,113.367683 C95.6699229,113.367683 95.5362467,113.312805 95.4253562,113.203049 C95.3144657,113.093293 95.25978,112.959146 95.25978,112.80061 C95.25978,112.642073 95.3144657,112.507927 95.4238371,112.398171 C95.5347276,112.288415 95.6668848,112.233537 95.8248657,112.233537 L97.0279514,112.233537 L97.0279514,110.001829 Z" id="Fill-25" fill="#B2B2B2"></path>
                        <path d="M104.995508,116.678506 C105.00766,117.154116 105.10336,117.59314 105.285646,117.995579 C105.469451,118.398018 105.706422,118.745579 105.99656,119.038262 C106.289737,119.330945 106.628484,119.559604 107.01736,119.724238 C107.407756,119.888872 107.819418,119.971189 108.256903,119.971189 C108.706541,119.971189 109.133394,119.885823 109.532903,119.715091 C109.935451,119.54436 110.283313,119.311128 110.582565,119.010823 C110.87878,118.712043 111.112713,118.361433 111.284365,117.958994 C111.45298,117.556555 111.539565,117.129726 111.539565,116.678506 C111.539565,116.227287 111.45298,115.803506 111.284365,115.407165 C111.112713,115.010823 110.87878,114.663262 110.582565,114.364482 C110.283313,114.065701 109.935451,113.830945 109.532903,113.660213 C109.133394,113.489482 108.706541,113.404116 108.256903,113.404116 C107.819418,113.404116 107.407756,113.486433 107.01736,113.651067 C106.628484,113.815701 106.289737,114.039787 105.99656,114.31875 C105.706422,114.599238 105.469451,114.931555 105.285646,115.315701 C105.10336,115.699848 105.00766,116.111433 104.995508,116.550457 L104.995508,116.678506 Z M103.865337,112.800457 C103.865337,112.643445 103.920022,112.507774 104.027875,112.398018 C104.138765,112.288262 104.270922,112.233384 104.430422,112.233384 C104.586884,112.233384 104.72056,112.288262 104.831451,112.398018 C104.940822,112.507774 104.995508,112.643445 104.995508,112.800457 L104.995508,113.715091 C105.396537,113.263872 105.875037,112.913262 106.434046,112.663262 C106.993056,112.413262 107.602194,112.288262 108.256903,112.288262 C108.878194,112.288262 109.455432,112.404116 109.988618,112.635823 C110.524841,112.86753 110.988151,113.184604 111.383103,113.587043 C111.779575,113.989482 112.092499,114.455945 112.321875,114.986433 C112.554289,115.516921 112.669737,116.080945 112.669737,116.678506 C112.669737,117.288262 112.551251,117.861433 112.31276,118.398018 C112.075789,118.934604 111.756789,119.404116 111.35576,119.806555 C110.956251,120.208994 110.489903,120.529116 109.962794,120.766921 C109.434165,121.004726 108.878194,121.123628 108.29488,121.123628 C107.614346,121.099238 106.993056,120.925457 106.434046,120.602287 C105.875037,120.279116 105.396537,119.898018 104.995508,119.458994 L104.995508,123.86753 C104.995508,124.026067 104.940822,124.160213 104.831451,124.26997 C104.72056,124.379726 104.586884,124.434604 104.430422,124.434604 C104.270922,124.434604 104.138765,124.379726 104.027875,124.26997 C103.920022,124.160213 103.865337,124.026067 103.865337,123.86753 L103.865337,112.800457 Z" id="Fill-27" fill="#B2B2B2"></path>
                        <path d="M113.543189,110.001829 C113.543189,109.843293 113.597875,109.709146 113.707246,109.59939 C113.818137,109.489634 113.951813,109.434756 114.108275,109.434756 C114.267775,109.434756 114.399932,109.489634 114.510822,109.59939 C114.618675,109.709146 114.67336,109.843293 114.67336,110.001829 L114.67336,120.556707 C114.67336,120.715244 114.618675,120.84939 114.510822,120.957622 C114.399932,121.068902 114.267775,121.12378 114.108275,121.12378 C113.951813,121.12378 113.818137,121.068902 113.707246,120.957622 C113.597875,120.84939 113.543189,120.715244 113.543189,120.556707 L113.543189,110.001829 Z" id="Fill-29" fill="#B2B2B2"></path>
                        <path d="M123.295323,116.715701 C123.295323,116.264482 123.210256,115.837652 123.040123,115.433689 C122.86999,115.032774 122.636056,114.682165 122.338323,114.383384 C122.04059,114.083079 121.691209,113.849848 121.29018,113.679116 C120.889151,113.508384 120.463818,113.423018 120.01418,113.423018 C119.564542,113.423018 119.142247,113.508384 118.747294,113.679116 C118.352342,113.849848 118.005999,114.083079 117.708266,114.383384 C117.410532,114.682165 117.176599,115.032774 117.006466,115.433689 C116.836332,115.837652 116.751266,116.264482 116.751266,116.715701 C116.751266,117.166921 116.836332,117.589177 117.006466,117.987043 C117.176599,118.383384 117.410532,118.729421 117.708266,119.029726 C118.005999,119.328506 118.352342,119.561738 118.747294,119.73247 C119.142247,119.904726 119.564542,119.988567 120.01418,119.988567 C120.451666,119.988567 120.864847,119.907774 121.253723,119.741616 C121.642599,119.578506 121.985904,119.349848 122.283637,119.05564 C122.58137,118.764482 122.818342,118.418445 122.994551,118.022104 C123.170761,117.627287 123.271018,117.191311 123.295323,116.715701 L123.295323,116.715701 Z M123.295323,119.459604 C122.894294,119.910823 122.411237,120.298018 121.846151,120.621189 C121.281066,120.942835 120.670409,121.105945 120.01418,121.105945 C119.405042,121.105945 118.838437,120.996189 118.309809,120.776677 C117.78118,120.557165 117.316351,120.250762 116.915323,119.860518 C116.514294,119.471799 116.198332,119.008384 115.967437,118.470274 C115.736542,117.935213 115.621094,117.349848 115.621094,116.715701 C115.621094,116.105945 115.731985,115.529726 115.958323,114.985518 C116.183142,114.44436 116.493028,113.970274 116.88798,113.56936 C117.282932,113.166921 117.750799,112.849848 118.29158,112.61814 C118.832361,112.386433 119.418713,112.270579 120.050637,112.270579 C120.633951,112.270579 121.189923,112.387957 121.718551,112.625762 C122.24718,112.865091 122.712009,113.185213 123.113037,113.586128 C123.515585,113.990091 123.833066,114.459604 124.070037,114.996189 C124.307009,115.532774 124.425494,116.105945 124.425494,116.715701 L124.425494,120.573933 C124.425494,120.733994 124.370809,120.86814 124.261437,120.977896 C124.152066,121.086128 124.01839,121.141006 123.860409,121.141006 C123.702428,121.141006 123.568751,121.086128 123.45938,120.977896 C123.350009,120.86814 123.295323,120.733994 123.295323,120.573933 L123.295323,119.459604 Z" id="Fill-31" fill="#B2B2B2"></path>
                        <path d="M129.657854,112.288415 C130.14243,112.288415 130.579916,112.361585 130.970311,112.507927 C131.359187,112.654268 131.693378,112.821951 131.971363,113.010976 C132.252387,113.2 132.468092,113.389024 132.619997,113.578049 C132.771901,113.767073 132.847854,113.908841 132.847854,114.007927 C132.847854,114.142073 132.791649,114.257927 132.683797,114.353963 C132.574425,114.453049 132.452901,114.501829 132.319225,114.501829 C132.159725,114.501829 132.027568,114.446951 131.918197,114.337195 C131.614387,114.068902 131.268044,113.852439 130.879168,113.687805 C130.490292,113.523171 130.069516,113.440854 129.621397,113.440854 C129.171759,113.440854 128.747944,113.52622 128.354511,113.696951 C127.959559,113.867683 127.611697,114.102439 127.315482,114.40122 C127.017749,114.7 126.782297,115.05061 126.613682,115.453049 C126.443549,115.855488 126.358482,116.282317 126.358482,116.733537 C126.358482,117.184756 126.443549,117.608537 126.613682,118.004878 C126.782297,118.40122 127.017749,118.74878 127.315482,119.047561 C127.611697,119.346341 127.959559,119.581098 128.354511,119.751829 C128.747944,119.922561 129.171759,120.006402 129.621397,120.006402 C130.069516,120.006402 130.490292,119.92561 130.879168,119.760976 C131.268044,119.596341 131.614387,119.367683 131.918197,119.075 C132.027568,118.965244 132.159725,118.910366 132.319225,118.910366 C132.465054,118.910366 132.595692,118.962195 132.71114,119.065854 C132.826587,119.169512 132.884311,119.30061 132.884311,119.459146 C132.884311,119.556707 132.814435,119.7 132.673163,119.889024 C132.53493,120.078049 132.325301,120.2625 132.045797,120.446951 C131.766292,120.629878 131.422987,120.788415 131.015882,120.922561 C130.608778,121.056707 130.14243,121.12378 129.621397,121.12378 C129.012259,121.12378 128.445654,121.014024 127.917025,120.794512 C127.388397,120.575 126.923568,120.270122 126.52254,119.878354 C126.121511,119.489634 125.805549,119.02622 125.574654,118.489634 C125.343759,117.953049 125.228311,117.367683 125.228311,116.733537 C125.228311,116.12378 125.339201,115.553659 125.56554,115.023171 C125.790359,114.492683 126.100244,114.029268 126.495197,113.632927 C126.890149,113.236585 127.356497,112.919512 127.898797,112.681707 C128.438059,112.443902 129.02593,112.312805 129.657854,112.288415" id="Fill-33" fill="#B2B2B2"></path>
                        <path d="M141.12484,116.11128 C141.050407,115.733232 140.916731,115.381098 140.722293,115.050305 C140.527855,114.721037 140.287845,114.4375 140.003783,114.199695 C139.716683,113.96189 139.394645,113.772866 139.037669,113.632622 C138.679174,113.492378 138.299412,113.422256 137.898383,113.422256 C137.495836,113.422256 137.116074,113.492378 136.759098,113.632622 C136.400602,113.772866 136.078564,113.96189 135.791464,114.199695 C135.507402,114.4375 135.270431,114.721037 135.08055,115.050305 C134.892188,115.381098 134.763069,115.733232 134.690155,116.11128 L141.12484,116.11128 Z M134.671926,117.245427 C134.732688,117.635671 134.860288,117.998476 135.054726,118.333841 C135.249164,118.669207 135.489174,118.958841 135.774755,119.202744 C136.058817,119.446646 136.385412,119.63872 136.748464,119.778963 C137.113036,119.919207 137.495836,119.989329 137.898383,119.989329 C138.348021,119.989329 138.76576,119.907012 139.156155,119.742378 C139.545031,119.577744 139.891374,119.349085 140.195183,119.056402 C140.304555,118.946646 140.438231,118.891768 140.594693,118.891768 C140.754193,118.891768 140.887869,118.946646 140.99724,119.056402 C141.105093,119.166159 141.159779,119.300305 141.159779,119.458841 C141.159779,119.617378 141.105093,119.751524 140.99724,119.86128 C140.594693,120.3125 140.143536,120.632622 139.637693,120.821646 C139.133369,121.010671 138.554612,121.105183 137.898383,121.105183 C137.290764,121.105183 136.72264,120.995427 136.194012,120.777439 C135.663864,120.556402 135.200555,120.251524 134.799526,119.86128 C134.396979,119.471037 134.081017,119.007622 133.85164,118.471037 C133.620745,117.934451 133.503779,117.349085 133.503779,116.714939 C133.503779,116.105183 133.617707,115.535061 133.842526,115.004573 C134.067345,114.474085 134.377231,114.010671 134.770664,113.614329 C135.165617,113.219512 135.635002,112.902439 136.174264,112.66311 C136.716564,112.425305 137.301398,112.294207 137.933321,112.269817 C138.504483,112.269817 139.055898,112.387195 139.583007,112.617378 C140.113155,112.849085 140.577983,113.166159 140.977493,113.568598 C141.38004,113.971037 141.702079,114.4375 141.945126,114.967988 C142.186655,115.498476 142.308179,116.068598 142.308179,116.678354 C142.308179,116.86128 142.247417,117.001524 142.125893,117.099085 C142.004369,117.196646 141.876769,117.245427 141.743093,117.245427 L134.671926,117.245427 Z" id="Fill-35" fill="#B2B2B2"></path>
                        <path d="M142.436234,120.373323 C142.436234,120.166006 142.509149,119.989177 142.656496,119.842835 C142.800806,119.698018 142.977015,119.623323 143.183606,119.623323 C143.390196,119.623323 143.566406,119.698018 143.712234,119.842835 C143.859582,119.989177 143.930977,120.166006 143.930977,120.373323 C143.930977,120.582165 143.859582,120.75747 143.712234,120.905335 C143.566406,121.050152 143.390196,121.123323 143.183606,121.123323 C142.977015,121.123323 142.800806,121.050152 142.656496,120.905335 C142.509149,120.75747 142.436234,120.582165 142.436234,120.373323" id="Fill-37" fill="#B2B2B2"></path>
                        <path d="M156.526009,112.800457 C156.526009,112.641921 156.580694,112.507774 156.690066,112.398018 C156.799437,112.288262 156.933113,112.233384 157.091094,112.233384 C157.249075,112.233384 157.382751,112.288262 157.492123,112.398018 C157.601494,112.507774 157.65618,112.641921 157.65618,112.800457 L157.65618,113.696799 C158.045056,113.26997 158.512923,112.91936 159.05978,112.64497 C159.606637,112.370579 160.202104,112.233384 160.84618,112.233384 C161.040618,112.233384 161.195561,112.288262 161.311009,112.398018 C161.426456,112.507774 161.48418,112.641921 161.48418,112.800457 C161.48418,112.958994 161.426456,113.09314 161.311009,113.202896 C161.195561,113.312652 161.040618,113.36753 160.84618,113.36753 C160.408694,113.36753 160.00159,113.452896 159.624866,113.623628 C159.248142,113.79436 158.91699,114.026067 158.631409,114.31875 C158.345828,114.609909 158.114932,114.946799 157.938723,115.324848 C157.762513,115.702896 157.668332,116.099238 157.65618,116.513872 L157.65618,120.556555 C157.65618,120.715091 157.601494,120.849238 157.492123,120.958994 C157.382751,121.06875 157.249075,121.123628 157.091094,121.123628 C156.933113,121.123628 156.799437,121.06875 156.690066,120.958994 C156.580694,120.849238 156.526009,120.715091 156.526009,120.556555 L156.526009,112.800457 Z" id="Fill-39" fill="#B2B2B2"></path>
                        <path d="M162.468675,112.800457 C162.468675,112.641921 162.52336,112.507774 162.632732,112.398018 C162.743622,112.288262 162.877299,112.233384 163.03376,112.233384 C163.19326,112.233384 163.325418,112.288262 163.436308,112.398018 C163.54416,112.507774 163.598846,112.641921 163.598846,112.800457 L163.598846,120.556555 C163.598846,120.715091 163.54416,120.849238 163.436308,120.958994 C163.325418,121.06875 163.19326,121.123628 163.03376,121.123628 C162.877299,121.123628 162.743622,121.06875 162.632732,120.958994 C162.52336,120.849238 162.468675,120.715091 162.468675,120.556555 L162.468675,112.800457 Z M162.286389,110.184604 C162.286389,109.977287 162.360822,109.800457 162.505132,109.654116 C162.65096,109.507774 162.82717,109.434604 163.03376,109.434604 C163.240351,109.434604 163.41656,109.507774 163.563908,109.654116 C163.708218,109.800457 163.781132,109.977287 163.781132,110.184604 C163.781132,110.391921 163.708218,110.56875 163.563908,110.715091 C163.41656,110.861433 163.240351,110.934604 163.03376,110.934604 C162.82717,110.934604 162.65096,110.861433 162.505132,110.715091 C162.360822,110.56875 162.286389,110.391921 162.286389,110.184604 L162.286389,110.184604 Z" id="Fill-41" fill="#B2B2B2"></path>
                        <path d="M172.148198,116.605488 C172.123893,116.166463 172.023636,115.753354 171.847427,115.369207 C171.671217,114.986585 171.434246,114.65122 171.136512,114.364634 C170.838779,114.078049 170.495474,113.852439 170.106598,113.687805 C169.717722,113.523171 169.304541,113.440854 168.867055,113.440854 C168.417417,113.440854 167.995122,113.524695 167.60017,113.696951 C167.205217,113.867683 166.858874,114.102439 166.561141,114.40122 C166.263408,114.7 166.029474,115.049085 165.859341,115.453049 C165.689208,115.855488 165.604141,116.282317 165.604141,116.733537 C165.604141,117.184756 165.689208,117.608537 165.859341,118.004878 C166.029474,118.40122 166.263408,118.74878 166.561141,119.047561 C166.858874,119.346341 167.205217,119.581098 167.60017,119.750305 C167.995122,119.922561 168.417417,120.006402 168.867055,120.006402 C169.304541,120.006402 169.717722,119.92561 170.106598,119.760976 C170.495474,119.596341 170.838779,119.37378 171.136512,119.093293 C171.434246,118.812805 171.671217,118.482012 171.847427,118.103963 C172.023636,117.727439 172.123893,117.318902 172.148198,116.879878 L172.148198,116.605488 Z M172.148198,113.001829 C172.148198,112.843293 172.202884,112.709146 172.312255,112.59939 C172.421627,112.489634 172.555303,112.434756 172.713284,112.434756 C172.871265,112.434756 173.004941,112.489634 173.114312,112.59939 C173.223684,112.709146 173.27837,112.843293 173.27837,113.001829 L173.27837,120.062805 C173.27837,120.660366 173.162922,121.22439 172.932027,121.754878 C172.701131,122.285366 172.388208,122.751829 171.993255,123.154268 C171.598303,123.556707 171.133474,123.87378 170.59877,124.105488 C170.064065,124.335671 169.486827,124.451524 168.867055,124.451524 C168.247284,124.451524 167.676122,124.343293 167.15357,124.12378 C166.631017,123.904268 166.169227,123.59939 165.768198,123.209146 L165.74997,123.190854 C165.640598,123.081098 165.585912,122.953049 165.585912,122.805183 C165.585912,122.648171 165.643636,122.510976 165.759084,122.395122 C165.874531,122.279268 166.011246,122.221341 166.169227,122.221341 C166.327208,122.221341 166.454808,122.270122 166.552027,122.367683 C166.855836,122.671037 167.202179,122.910366 167.591055,123.081098 C167.979931,123.250305 168.405265,123.337195 168.867055,123.337195 C169.316693,123.337195 169.742027,123.250305 170.143055,123.081098 C170.544084,122.910366 170.893465,122.674085 171.191198,122.376829 C171.488931,122.078049 171.722865,121.728963 171.892998,121.334146 C172.063131,120.937805 172.148198,120.5125 172.148198,120.062805 L172.148198,119.660366 C171.74717,120.111585 171.264112,120.468293 170.699027,120.730488 C170.133941,120.992683 169.523284,121.12378 168.867055,121.12378 C168.257917,121.12378 167.691312,121.014024 167.162684,120.794512 C166.634055,120.575 166.169227,120.270122 165.768198,119.878354 C165.36717,119.489634 165.051208,119.02622 164.820312,118.489634 C164.589417,117.953049 164.47397,117.367683 164.47397,116.733537 C164.47397,116.12378 164.58486,115.553659 164.811198,115.023171 C165.036017,114.492683 165.345903,114.029268 165.740855,113.632927 C166.135808,113.236585 166.603674,112.919512 167.144455,112.681707 C167.685236,112.443902 168.271589,112.312805 168.903512,112.288415 C169.535436,112.30061 170.130903,112.440854 170.689912,112.709146 C171.248922,112.977439 171.735017,113.343293 172.148198,113.806707 L172.148198,113.001829 Z" id="Fill-43" fill="#B2B2B2"></path>
                        <path d="M174.480088,110.001829 C174.480088,109.843293 174.534774,109.709146 174.644145,109.59939 C174.755036,109.489634 174.888712,109.434756 175.045174,109.434756 C175.204674,109.434756 175.336831,109.489634 175.446202,109.59939 C175.555574,109.709146 175.61026,109.843293 175.61026,110.001829 L175.61026,113.075 C175.889764,112.831098 176.213321,112.635976 176.576374,112.489634 C176.940945,112.343293 177.329821,112.270122 177.743002,112.270122 C178.19264,112.270122 178.619493,112.355488 179.019002,112.52622 C179.420031,112.696951 179.769412,112.931707 180.068664,113.230488 C180.364879,113.529268 180.598812,113.879878 180.770464,114.282317 C180.939079,114.684756 181.025664,115.111585 181.025664,115.56128 L181.025664,120.556707 C181.025664,120.715244 180.96946,120.84939 180.860088,120.957622 C180.750717,121.068902 180.61704,121.12378 180.460579,121.12378 C180.301079,121.12378 180.167402,121.068902 180.058031,120.957622 C179.950179,120.84939 179.893974,120.715244 179.893974,120.556707 L179.893974,115.56128 C179.893974,115.270122 179.83625,114.992683 179.720802,114.730488 C179.605355,114.468293 179.450412,114.239634 179.257493,114.044512 C179.063055,113.84939 178.833679,113.696951 178.572402,113.587195 C178.311126,113.477439 178.03466,113.422561 177.743002,113.422561 C177.451345,113.422561 177.177917,113.477439 176.922717,113.587195 C176.667517,113.696951 176.442698,113.843293 176.24826,114.02622 C176.053821,114.209146 175.903436,114.42561 175.792545,114.674085 C175.683174,114.924085 175.622412,115.190854 175.61026,115.471341 L175.61026,120.556707 C175.61026,120.727439 175.558612,120.864634 175.456836,120.968293 C175.352021,121.071951 175.215307,121.12378 175.045174,121.12378 C174.888712,121.12378 174.756555,121.068902 174.65326,120.957622 C174.549964,120.84939 174.49224,120.715244 174.480088,120.556707 L174.480088,110.001829 Z" id="Fill-45" fill="#B2B2B2"></path>
                        <path d="M182.99359,110.001829 C182.99359,109.843293 183.048276,109.709146 183.157648,109.59939 C183.267019,109.489634 183.402214,109.434756 183.558676,109.434756 C183.716657,109.434756 183.850333,109.489634 183.959705,109.59939 C184.069076,109.709146 184.123762,109.843293 184.123762,110.001829 L184.123762,112.233537 L185.339,112.233537 C185.4985,112.233537 185.633695,112.288415 185.744586,112.398171 C185.855476,112.507927 185.910162,112.642073 185.910162,112.80061 C185.910162,112.959146 185.855476,113.093293 185.744586,113.203049 C185.633695,113.312805 185.4985,113.367683 185.339,113.367683 L184.123762,113.367683 L184.123762,120.556707 C184.123762,120.715244 184.070595,120.84939 183.962743,120.957622 C183.85489,121.068902 183.722733,121.12378 183.56779,121.12378 C183.411329,121.12378 183.28069,121.068902 183.172838,120.957622 C183.066505,120.84939 183.011819,120.715244 183.011819,120.556707 L183.011819,113.367683 L181.796581,113.367683 C181.635562,113.367683 181.501886,113.312805 181.390995,113.203049 C181.280105,113.093293 181.225419,112.959146 181.225419,112.80061 C181.225419,112.642073 181.280105,112.507927 181.389476,112.398171 C181.500367,112.288415 181.632524,112.233537 181.790505,112.233537 L182.99359,112.233537 L182.99359,110.001829 Z" id="Fill-47" fill="#B2B2B2"></path>
                        <path d="M190.011742,112.800457 C190.011742,112.641921 190.064909,112.507774 190.17428,112.398018 C190.285171,112.288262 190.418847,112.233384 190.575309,112.233384 C190.734809,112.233384 190.866966,112.288262 190.977857,112.398018 C191.087228,112.507774 191.140395,112.641921 191.140395,112.800457 L191.140395,113.001677 C191.348504,112.79436 191.618895,112.605335 191.951566,112.434604 C192.285757,112.263872 192.63058,112.178506 192.98148,112.178506 C193.4934,112.178506 193.95519,112.291311 194.366852,112.515396 C194.781552,112.74253 195.1203,113.04436 195.387652,113.422409 C195.668676,113.04436 196.0135,112.74253 196.4282,112.515396 C196.839861,112.291311 197.303171,112.178506 197.813571,112.178506 C198.225233,112.178506 198.614109,112.259299 198.97868,112.416311 C199.344771,112.574848 199.660733,112.788262 199.926566,113.056555 C200.193919,113.324848 200.408104,113.641921 200.564566,114.007774 C200.724066,114.373628 200.803057,114.763872 200.803057,115.178506 L200.803057,120.556555 C200.803057,120.715091 200.746852,120.849238 200.63748,120.958994 C200.529628,121.06875 200.394433,121.123628 200.236452,121.123628 C200.07999,121.123628 199.944795,121.06875 199.836942,120.958994 C199.727571,120.849238 199.671366,120.715091 199.671366,120.556555 L199.671366,115.178506 C199.671366,114.922409 199.622757,114.681555 199.527057,114.455945 C199.428319,114.230335 199.294642,114.032165 199.126028,113.861433 C198.955895,113.690701 198.758419,113.556555 198.53208,113.458994 C198.307261,113.361433 198.068771,113.312652 197.813571,113.312652 C197.558371,113.312652 197.318361,113.361433 197.092023,113.458994 C196.868723,113.556555 196.674285,113.690701 196.508709,113.861433 C196.346171,114.032165 196.214014,114.230335 196.118314,114.455945 C196.019576,114.681555 195.972485,114.922409 195.972485,115.178506 L195.972485,120.556555 C195.972485,120.715091 195.9178,120.849238 195.806909,120.958994 C195.697538,121.06875 195.563861,121.123628 195.4074,121.123628 C195.2479,121.123628 195.114223,121.06875 195.004852,120.958994 C194.897,120.849238 194.842314,120.715091 194.842314,120.556555 L194.842314,115.178506 C194.81649,114.641921 194.62509,114.196799 194.268114,113.84314 C193.9081,113.489482 193.479728,113.312652 192.98148,113.312652 C192.47108,113.312652 192.044228,113.486433 191.696366,113.833994 C191.351542,114.181555 191.166219,114.605335 191.140395,115.105335 L191.140395,120.556555 C191.140395,120.715091 191.087228,120.849238 190.977857,120.958994 C190.866966,121.06875 190.734809,121.123628 190.575309,121.123628 C190.418847,121.123628 190.285171,121.06875 190.17428,120.958994 C190.064909,120.849238 190.011742,120.715091 190.011742,120.556555 L190.011742,112.800457 Z" id="Fill-49" fill="#B2B2B2"></path>
                        <path d="M206.07157,113.422713 C205.620412,113.422713 205.199636,113.508079 204.804684,113.678811 C204.408212,113.849543 204.063389,114.084299 203.764136,114.383079 C203.466403,114.68186 203.233989,115.03247 203.063855,115.433384 C202.892203,115.837348 202.808655,116.264177 202.808655,116.715396 C202.808655,117.166616 202.892203,117.588872 203.063855,117.986738 C203.233989,118.383079 203.466403,118.729116 203.764136,119.029421 C204.063389,119.328201 204.408212,119.561433 204.804684,119.733689 C205.199636,119.904421 205.620412,119.989787 206.07157,119.989787 C206.521208,119.989787 206.945022,119.904421 207.34757,119.733689 C207.748598,119.561433 208.097979,119.328201 208.394193,119.029421 C208.693446,118.729116 208.927379,118.383079 209.095993,117.986738 C209.267646,117.588872 209.351193,117.166616 209.351193,116.715396 C209.351193,116.264177 209.267646,115.837348 209.095993,115.433384 C208.927379,115.03247 208.693446,114.68186 208.394193,114.383079 C208.097979,114.084299 207.748598,113.849543 207.34757,113.678811 C206.945022,113.508079 206.521208,113.422713 206.07157,113.422713 M206.106508,112.270274 C206.689822,112.270274 207.245793,112.387652 207.775941,112.626982 C208.30457,112.864787 208.767879,113.184909 209.170427,113.585823 C209.571455,113.989787 209.890455,114.459299 210.127427,114.995884 C210.362879,115.53247 210.481365,116.10564 210.481365,116.715396 C210.481365,117.312957 210.365917,117.876982 210.136541,118.40747 C209.904127,118.937957 209.591203,119.404421 209.19777,119.805335 C208.802817,120.209299 208.33647,120.526372 207.803284,120.758079 C207.26706,120.989787 206.689822,121.10564 206.07157,121.10564 C205.46395,121.10564 204.895827,120.995884 204.367198,120.776372 C203.83705,120.55686 203.373741,120.250457 202.972712,119.861738 C202.570165,119.471494 202.254203,119.008079 202.024827,118.471494 C201.793931,117.934909 201.676965,117.349543 201.676965,116.715396 C201.676965,116.10564 201.790893,115.535518 202.015712,115.00503 C202.240531,114.473018 202.550417,114.011128 202.94385,113.614787 C203.338803,113.218445 203.808189,112.901372 204.34745,112.663567 C204.88975,112.425762 205.474584,112.294665 206.106508,112.270274" id="Fill-51" fill="#B2B2B2"></path>
                        <path d="M216.314811,112.581707 C216.351269,112.484146 216.418107,112.404878 216.516845,112.343902 C216.612545,112.282927 216.717359,112.250915 216.825211,112.250915 C216.995345,112.250915 217.132059,112.308841 217.235354,112.424695 C217.33865,112.542073 217.390297,112.667073 217.390297,112.80122 C217.390297,112.872866 217.372069,112.946037 217.33713,113.019207 C217.323459,113.045122 217.279407,113.170122 217.198897,113.394207 C217.119907,113.621341 216.975597,114.019207 216.761411,114.592378 C216.548745,115.165549 216.257088,115.944512 215.887959,116.92622 C215.517311,117.906402 215.038811,119.154878 214.455497,120.667073 C214.406888,120.80122 214.337011,120.910976 214.247388,120.996341 C214.154726,121.080183 214.024088,121.12439 213.855473,121.12439 C213.68534,121.12439 213.548626,121.071037 213.443811,120.968902 C213.340516,120.865244 213.27064,120.76311 213.235702,120.667073 C212.725302,119.264634 212.293892,118.077134 211.939954,117.109146 C211.589054,116.139634 211.301954,115.357622 211.08473,114.767683 C210.864469,114.17622 210.708007,113.746341 210.609269,113.478049 C210.513569,113.209756 210.46344,113.067988 210.46344,113.057317 C210.426983,112.984146 210.408754,112.89878 210.408754,112.80122 C210.408754,112.642683 210.455845,112.510061 210.545469,112.407927 C210.63813,112.302744 210.768769,112.250915 210.937383,112.250915 C211.071059,112.250915 211.186507,112.282927 211.283726,112.343902 C211.380945,112.404878 211.447783,112.484146 211.48424,112.581707 L213.855473,119.07561 L216.314811,112.581707 Z" id="Fill-53" fill="#B2B2B2"></path>
                        <path d="M224.937989,116.11128 C224.863556,115.733232 224.72988,115.381098 224.535441,115.050305 C224.341003,114.721037 224.100994,114.4375 223.816932,114.199695 C223.529832,113.96189 223.207794,113.772866 222.850818,113.632622 C222.492322,113.492378 222.11256,113.422256 221.711532,113.422256 C221.308984,113.422256 220.929222,113.492378 220.572246,113.632622 C220.213751,113.772866 219.891713,113.96189 219.604613,114.199695 C219.320551,114.4375 219.08358,114.721037 218.893699,115.050305 C218.705337,115.381098 218.576218,115.733232 218.503303,116.11128 L224.937989,116.11128 Z M218.485075,117.245427 C218.545837,117.635671 218.673437,117.998476 218.867875,118.333841 C219.062313,118.669207 219.302322,118.958841 219.587903,119.202744 C219.871965,119.446646 220.19856,119.63872 220.561613,119.778963 C220.926184,119.919207 221.308984,119.989329 221.711532,119.989329 C222.16117,119.989329 222.578908,119.907012 222.969303,119.742378 C223.35818,119.577744 223.704522,119.349085 224.008332,119.056402 C224.117703,118.946646 224.25138,118.891768 224.407841,118.891768 C224.567341,118.891768 224.701018,118.946646 224.810389,119.056402 C224.918241,119.166159 224.972927,119.300305 224.972927,119.458841 C224.972927,119.617378 224.918241,119.751524 224.810389,119.86128 C224.407841,120.3125 223.956684,120.632622 223.450841,120.821646 C222.946518,121.010671 222.36776,121.105183 221.711532,121.105183 C221.103913,121.105183 220.535789,120.995427 220.00716,120.777439 C219.477013,120.556402 219.013703,120.251524 218.612675,119.86128 C218.210127,119.471037 217.894165,119.007622 217.664789,118.471037 C217.433894,117.934451 217.316927,117.349085 217.316927,116.714939 C217.316927,116.105183 217.430856,115.535061 217.655675,115.004573 C217.880494,114.474085 218.19038,114.010671 218.583813,113.614329 C218.978765,113.219512 219.448151,112.902439 219.987413,112.66311 C220.529713,112.425305 221.114546,112.294207 221.74647,112.269817 C222.317632,112.269817 222.869046,112.387195 223.396156,112.617378 C223.926303,112.849085 224.391132,113.166159 224.790641,113.568598 C225.193189,113.971037 225.515227,114.4375 225.758275,114.967988 C225.999803,115.498476 226.121327,116.068598 226.121327,116.678354 C226.121327,116.86128 226.060565,117.001524 225.939041,117.099085 C225.817518,117.196646 225.689918,117.245427 225.556241,117.245427 L218.485075,117.245427 Z" id="Fill-55" fill="#B2B2B2"></path>
                    </g>
                </g>
            </g>
        </g>
    </g>
</svg>